<svg version="1.1" xmlns="http://www.w3.org/2000/svg" xmlns:xlink="http://www.w3.org/1999/xlink" x="0px" y="0px" viewBox="0 0 1000 1000" enable-background="new 0 0 1000 1000" xml:space="preserve">
<g><path d="M884.9,709.1l-66-235.6c-1.8-6.1-3.9-13.4-6.1-21.4l-6.5-21c-0.6-1.9-1.2-3.8-1.4-4.2l-4.1-13c0,0-1.2-4.5-3.9-11.3c-0.7-2.1-1.8-5-2.5-6.7l-1.1-3.1c-48.7-139.2-104.4-254.4-293.5-254.4c-188.3,0-245.4,118.9-292.2,252.8c-0.4,1-0.8,2-1.2,3c-0.8,1.7-1.5,3.6-2.2,5.7c-3.4,8.3-4.8,13.1-4.8,13.1l-3.9,12.5c-0.7,1.8-1.3,3.8-1.9,5.7l-6.4,20.9c-2.1,8-4.3,15.3-6.2,21.8l-65,230.9l-0.9,4.1c-5.6,26.7,7.6,57,31.5,70.7l21.9,11.8c19.3,9.9,39.3,19,58.8,26.9c9.9,4.3,20.3,8.2,31.7,12.5c24.2,9.1,49.5,17.1,76,23.8l2.6,0.7c2.4,0.6,5,1.2,7,1.6l7.5,1.6c3.9,0.9,7.8,1.7,11,2.4c44.8,10.2,90.6,15.8,136.2,16.7h0.5h0.5c45.8-0.9,91.7-6.6,135.6-16.6c4.3-0.8,8.6-1.8,12.7-2.7l6.1-1.4c2.5-0.5,4.7-1,6.9-1.6l4.2-1c40-10.3,79.2-23.8,116.6-40.2c12.8-5.6,23.9-10.5,31.5-14.4c3.4-1.4,6.6-3,9.6-4.6l2.1-1.1c13.1-6.4,21.9-10.9,25.9-13.2l5.3-3.2C878.8,763,890.2,734.6,884.9,709.1z M829.2,736l-0.5,0.4c-0.6,0.3-1.4,0.8-2.4,1.4c-3.5,2-11.2,5.8-22.8,11.5l-2.8,1.4c-1.9,1-3.9,2.1-7.7,3.7c-8.5,4.2-18.8,8.8-30.6,13.9c-35,15.3-71.7,27.9-107.7,37.2c-1.9,0.4-3.7,0.8-5.6,1.3l-11.6,2.6c-3.5,0.8-7.2,1.7-11.8,2.6c-41.3,9.4-83.6,14.6-125.8,15.5c-42-0.9-84.2-6.1-126.2-15.6l-19.3-4.2c-1.6-0.3-3-0.7-4.4-1l-3.4-0.8c-23.9-6-47.3-13.4-69.9-21.9c-10.6-3.9-20.3-7.6-30-11.8c-18.7-7.6-37.3-16.1-55-25.1l-20.4-11c-4.9-2.8-8.5-11.7-6.9-17.2l1-3.7L229.2,488c2-6.5,4.2-14.3,6.5-22.8l4.3-14.1c0.7-1.8,1.3-3.7,1.8-5.7l5.6-17.5c0.2-0.5,1.2-3.8,3.4-9.2l3.2-8.2c0.6-1.5,1.2-3.1,1.6-4.2c44.5-127.4,88.1-217.6,244.2-217.6c156.7,0,200.8,91.5,246,220.5l3.9,10.7c1.7,4.2,2.5,6.7,2.8,7.9l5.6,17.5c0.6,2,1.2,3.9,1.6,4.8l4.6,15c2.3,8.5,4.6,16.3,6.4,22.4l64,227.6l0.9,3.5C837,724.1,834,732.2,829.2,736z"/><path d="M618.4,892.2l-87.1,11.1c-17.3,1.5-45.5,1.5-62.8,0l-86.8-11.1c-17-3.4-22.2,5.1-11.6,18.8c0,0,61.3,79,129.7,79c68.7,0,130-79,130-79C640.6,897.3,635.4,888.8,618.4,892.2z"/><path d="M435,116.5c0,0,27.9-6.6,64.8-6.6c37.2,0,65.1,6.6,65.1,6.6c16.9,4,30.7,3.2,30.7-1.7c0-5-5.8-22-12.9-37.8c0,0-30-66.9-82.6-66.9c-52.9,0-82.9,66.9-82.9,66.9c-7.1,15.9-12.9,32.9-12.9,37.8C404.3,119.7,418.1,120.5,435,116.5z"/></g>
</svg>
